HIERARCHY
ROOT Hips
{
	OFFSET -3.958830 18.904000 13.208200
	CHANNELS 6 Xposition Yposition Zposition Zrotation Yrotation Xrotation 
	JOINT LHipJoint
	{
		OFFSET 0.000000 0.000000 0.000000
		CHANNELS 3 Zrotation Yrotation Xrotation
		JOINT LeftUpLeg
		{
			OFFSET 1.800000 -1.400000 0.085000
			CHANNELS 3 Zrotation Yrotation Xrotation
			JOINT LeftLeg
			{
				OFFSET 2.215000 -6.000000 0.000000
				CHANNELS 3 Zrotation Yrotation Xrotation
				JOINT LeftFoot
				{
					OFFSET 2.500000 -6.900000 0.000000
					CHANNELS 3 Zrotation Yrotation Xrotation
					JOINT LeftToeBase
					{
						OFFSET 0.200000 -0.500000 1.950000
						CHANNELS 3 Zrotation Yrotation Xrotation
						End Site
						{
							OFFSET 0.000000 0.000000 0.000000
						}
					}
				}
			}
		}
	}
	JOINT RHipJoint
	{
		OFFSET 0.000000 0.000000 0.000000
		CHANNELS 3 Zrotation Yrotation Xrotation
		JOINT RightUpLeg
		{
			OFFSET -1.800000 -1.400000 0.085000
			CHANNELS 3 Zrotation Yrotation Xrotation
			JOINT RightLeg
			{
				OFFSET -2.215000 -6.000000 0.000000
				CHANNELS 3 Zrotation Yrotation Xrotation
				JOINT RightFoot
				{
					OFFSET -2.500000 -6.900000 0.000000
					CHANNELS 3 Zrotation Yrotation Xrotation
					JOINT RightToeBase
					{
						OFFSET -0.200000 -0.500000 1.950000
						CHANNELS 3 Zrotation Yrotation Xrotation
						End Site
						{
							OFFSET 0.000000 0.000000 0.000000
						}
					}
				}
			}
		}
	}
	JOINT LowerBack
	{
		OFFSET 0.000000 0.000000 0.000000
		CHANNELS 3 Zrotation Yrotation Xrotation
		JOINT Spine
		{
			OFFSET -0.087000 1.940000 -0.288900
			CHANNELS 3 Zrotation Yrotation Xrotation
			JOINT Spine1
			{
				OFFSET 0.000000 1.950000 0.060000
				CHANNELS 3 Zrotation Yrotation Xrotation
				JOINT Neck
				{
					OFFSET 0.000000 0.000000 0.000000
					CHANNELS 3 Zrotation Yrotation Xrotation
					JOINT Neck1
					{
						OFFSET 0.000000 1.600000 0.340000
						CHANNELS 3 Zrotation Yrotation Xrotation
						JOINT Head
						{
							OFFSET 0.000000 1.667000 -0.240000
							CHANNELS 3 Zrotation Yrotation Xrotation
							End Site
							{
								OFFSET 0.000000 0.000000 0.000000
							}
						}
					}
				}
				JOINT LeftShoulder
				{
					OFFSET 0.000000 0.000000 0.000000
					CHANNELS 3 Zrotation Yrotation Xrotation
					JOINT LeftArm
					{
						OFFSET 2.700000 1.550000 -0.730000
						CHANNELS 3 Zrotation Yrotation Xrotation
						JOINT LeftForeArm
						{
							OFFSET 5.450000 0.000000 0.000000
							CHANNELS 3 Zrotation Yrotation Xrotation
							JOINT LeftHand
							{
								OFFSET 3.450000 0.000000 0.000000
								CHANNELS 3 Zrotation Yrotation Xrotation
								JOINT LeftHandIndex1
								{
									OFFSET 0.750000 0.000000 0.000000
									CHANNELS 3 Zrotation Yrotation Xrotation
									End Site
									{
										OFFSET 0.000000 0.000000 0.000000
									}
								}
							}
						}
					}
				}
				JOINT RightShoulder
				{
					OFFSET 0.000000 0.000000 0.000000
					CHANNELS 3 Zrotation Yrotation Xrotation
					JOINT RightArm
					{
						OFFSET -2.700000 1.550000 -0.730000
						CHANNELS 3 Zrotation Yrotation Xrotation
						JOINT RightForeArm
						{
							OFFSET -5.450000 0.000000 0.000000
							CHANNELS 3 Zrotation Yrotation Xrotation
							JOINT RightHand
							{
								OFFSET -3.450000 0.000000 0.000000
								CHANNELS 3 Zrotation Yrotation Xrotation
								JOINT RightHandIndex1
								{
									OFFSET -0.750000 0.000000 0.000000
									CHANNELS 3 Zrotation Yrotation Xrotation
									End Site
									{
										OFFSET 0.000000 0.000000 0.000000
									}
								}
							}
						}
					}
				}
			}
		}
	}
}
MOTION
Frames: 14
Frame Time: 0.016667
-0.008950 16.978030 -1.982740 -6.909724 -1.216295 11.357457 -14.971327 13.908894 3.787641 20.344116 -1.632408 -11.956602 -5.431226 4.651283 0.872746 0.334648 3.983507 3.072418 -0.063250 0.005500 0.070250 18.136904 -10.445664 2.790013 -7.986581 0.980196 -13.383499 4.903307 -3.068037 6.320516 0.197611 -2.588472 3.433730 -0.044120 0.040310 -0.162880 -3.654847 -3.550478 -8.478651 20.793096 -3.219146 8.898655 -10.342534 -0.039575 -19.290578 3.749298 -4.231969 -12.910917 -10.721490 4.962843 41.144714 1.331830 1.853030 7.571740 4.917233 5.957357 1.327470 -15.379515 -2.008748 -0.296704 7.451978 -13.406190 0.663428 -3.797942 3.060109 -0.166080 -0.000620 -0.133280 -0.107310 -12.396051 2.105499 7.873226 20.003888 4.898444 -0.094166 -9.712367 -0.221965 0.139313 3.364952 -1.198970 -0.023680 -0.087150 -0.076380 0.089330 
0.002870 16.966920 -1.953610 -6.872272 -0.924057 12.071303 -14.950371 13.761312 3.799367 20.198560 -1.760300 -11.826630 -5.481481 4.475997 -0.169244 0.344053 3.991680 3.085559 -0.089660 -0.030680 0.052750 18.183146 -10.407268 2.800603 -8.315859 1.013775 -13.474581 5.375731 -3.072360 5.568758 0.202718 -2.634394 3.423528 -0.061330 0.057150 -0.161070 -3.759530 -3.378312 -8.455627 20.672512 -2.631497 6.441124 -10.056436 -0.028333 -18.593973 3.619839 -4.222229 -12.827272 -10.605513 4.894190 40.528291 1.046030 2.117750 8.344870 3.434354 5.348153 1.497621 -13.861361 -0.363613 -0.600728 6.551518 -13.063181 0.704372 -3.811686 3.052051 -0.172470 0.015610 -0.150910 -0.108730 -10.786921 2.289953 8.048982 18.569362 3.451105 -0.324951 -9.156425 -0.580040 0.135340 3.364762 -1.189201 -0.035710 -0.093580 -0.065280 0.086720 
0.015670 16.959630 -1.934980 -6.915473 -0.691366 12.339542 -14.939217 13.649115 3.804673 20.196571 -1.819723 -11.518404 -5.551029 4.375892 -0.933935 0.363108 4.020030 3.083670 -0.100490 -0.048650 0.051150 18.217863 -10.375604 2.798442 -8.491780 0.982970 -13.253962 5.651906 -3.079136 5.009615 0.193876 -2.682855 3.406053 -0.073760 0.055930 -0.156300 -3.831977 -3.256879 -8.422607 20.609827 -2.242649 4.768846 -9.905673 -0.025530 -17.875639 3.562596 -4.194050 -12.825312 -10.492176 4.832895 40.095811 0.794090 2.391210 8.730210 2.119833 4.688014 1.682888 -12.367673 1.173397 -0.838690 5.541351 -12.732956 0.737465 -3.810095 3.053962 -0.173730 0.018850 -0.153480 -0.111500 -9.444452 2.613994 8.268849 17.500987 2.157232 -0.492013 -8.549158 -0.722255 0.110647 3.365457 -1.184063 -0.036360 -0.106230 -0.063740 0.083390 
0.026970 16.956960 -1.921990 -6.858637 -0.442815 12.451824 -14.935577 13.576549 3.799526 20.126060 -1.855743 -11.300496 -5.589981 4.311639 -1.375626 0.375752 4.032074 3.085139 -0.105820 -0.065170 0.057410 18.235696 -10.362715 2.801490 -8.679951 0.940925 -12.992171 5.800972 -3.078257 4.538226 0.183406 -2.725335 3.391205 -0.086920 0.050560 -0.149810 -3.868439 -3.161716 -8.401992 20.227944 -1.919002 3.561548 -9.576949 0.018318 -17.436992 3.511673 -4.122122 -12.847268 -10.346411 4.724797 39.882231 0.552550 2.582190 9.039590 1.142464 4.186344 1.831292 -11.210670 2.492629 -0.996773 4.272437 -12.868211 0.801925 -3.795690 3.066639 -0.169750 0.018760 -0.152410 -0.114660 -8.388322 2.824274 8.435436 16.726362 0.943496 -0.675720 -8.142944 -0.429478 0.071633 3.358025 -1.184848 -0.035300 -0.119700 -0.065160 0.077820 
0.038090 16.954400 -1.911120 -6.783223 -0.192826 12.444765 -14.934408 13.520871 3.786695 20.033339 -1.865947 -11.064848 -5.595795 4.268480 -1.687380 0.386649 4.038470 3.088241 -0.120070 -0.083280 0.051890 18.247638 -10.361398 2.803424 -8.888166 0.873405 -12.662751 5.925167 -3.091259 4.156936 0.177117 -2.774050 3.377046 -0.099320 0.050770 -0.151080 -3.892634 -3.071488 -8.379218 19.791602 -1.630437 2.578729 -9.138408 0.081699 -17.010330 3.417913 -4.054416 -12.886541 -10.218098 4.640571 39.743416 0.427720 2.693170 9.395220 0.454464 3.767735 1.993352 -10.320904 3.805278 -1.109894 2.490559 -13.623464 0.945409 -3.771148 3.089248 -0.170310 0.020490 -0.156090 -0.119790 -7.521395 2.987594 8.567677 15.879707 -0.081551 -0.809256 -7.652724 -0.009884 0.017074 3.347890 -1.179262 -0.038100 -0.125820 -0.060710 0.075730 
0.048010 16.952850 -1.902840 -6.620880 0.118005 12.398427 -14.936575 13.481087 3.761742 19.820000 -1.871850 -10.902282 -5.509933 4.215260 -1.874386 0.395687 4.014078 3.101692 -0.130760 -0.096330 0.050770 18.250814 -10.373427 2.815037 -9.164576 0.798446 -12.317789 6.084046 -3.112491 3.779337 0.167268 -2.828115 3.359435 -0.110660 0.046180 -0.152770 -3.899410 -2.978072 -8.365712 19.134567 -1.324948 1.776875 -8.637081 0.180188 -16.720305 3.375546 -3.867886 -12.894589 -9.900569 4.417477 39.769416 0.199970 2.758520 9.765900 -0.121693 3.442366 2.069365 -9.334907 4.827534 -1.132928 0.662260 -14.633548 1.160279 -3.738782 3.124069 -0.172340 0.019770 -0.156290 -0.123770 -6.839735 3.003027 8.667500 15.130555 -1.212851 -0.962810 -7.017239 0.889404 -0.067924 3.329870 -1.177513 -0.037590 -0.133460 -0.060910 0.074280 
0.057830 16.953920 -1.896540 -6.528795 0.460083 12.339327 -14.941365 13.456765 3.743446 19.686674 -1.873240 -10.822378 -5.418264 4.179060 -1.981530 0.394322 3.997976 3.111022 -0.142610 -0.114500 0.050020 18.249928 -10.378416 2.827843 -9.300197 0.735133 -11.965389 6.143363 -3.114502 3.416136 0.159430 -2.868157 3.350009 -0.121930 0.042880 -0.157490 -3.896866 -2.924596 -8.363091 18.633127 -1.065123 1.151714 -8.298104 0.291655 -16.613835 3.413006 -3.690056 -12.934754 -9.632385 4.225138 39.978346 0.020880 2.763560 10.076860 -0.696968 3.151010 2.108854 -8.484916 5.667108 -1.116241 -0.366508 -15.513618 1.337538 -3.714894 3.142309 -0.165600 0.017870 -0.157420 -0.128630 -6.302873 3.067706 8.791476 14.515975 -2.354346 -1.129259 -6.174506 2.049746 -0.150731 3.300784 -1.168709 -0.044270 -0.135180 -0.058060 0.068600 
0.067290 16.955290 -1.893700 -6.569054 0.754329 12.217335 -14.945695 13.440922 3.730959 19.678681 -1.862142 -10.740192 -5.325598 4.162406 -2.052357 0.394518 3.988898 3.114797 -0.147130 -0.123560 0.057750 18.250614 -10.372824 2.837074 -9.314851 0.671161 -11.606174 6.237901 -3.127710 3.136536 0.147413 -2.896213 3.345363 -0.130620 0.031110 -0.165170 -3.896908 -2.906236 -8.361853 18.420374 -0.848175 0.705085 -8.150876 0.410738 -16.461844 3.523076 -3.573537 -13.003363 -9.518051 4.029582 40.274544 -0.230310 2.767950 10.117230 -1.407540 2.837119 2.138471 -7.681370 6.511935 -1.100636 -0.588387 -16.347537 1.458260 -3.690876 3.147734 -0.153630 0.009210 -0.151630 -0.134340 -5.778415 3.249493 8.963565 13.871405 -3.501451 -1.272949 -5.540737 2.986709 -0.190464 3.278269 -1.156953 -0.048280 -0.134060 -0.059710 0.060990 
0.074470 16.955760 -1.890660 -6.603791 0.941791 12.083944 -14.950780 13.423201 3.720149 19.693318 -1.840295 -10.616466 -5.292280 4.160197 -2.092299 0.403506 3.983321 3.114898 -0.146520 -0.125120 0.065230 18.249380 -10.375744 2.844856 -9.325475 0.616855 -11.289319 6.259637 -3.129443 2.908129 0.134456 -2.917758 3.340191 -0.137720 0.017710 -0.167980 -3.890945 -2.865690 -8.361249 18.090837 -0.617507 0.302315 -7.823334 0.550656 -16.268219 3.575984 -3.505030 -13.089026 -9.477265 3.887069 40.554647 -0.322880 2.689480 10.115030 -2.166668 2.467449 2.218124 -7.088848 7.431852 -1.120216 -0.239069 -17.086346 1.512227 -3.670314 3.156486 -0.146260 -0.001220 -0.142470 -0.137510 -5.083583 3.521254 9.135035 12.822575 -4.531945 -1.312477 -5.051058 3.310277 -0.204005 3.273134 -1.147401 -0.044130 -0.137330 -0.063870 0.058210 
0.079540 16.955190 -1.886330 -6.637913 1.010095 11.943295 -14.952207 13.393516 3.708918 19.718285 -1.815079 -10.392765 -5.300033 4.160631 -2.183630 0.412020 3.995640 3.113741 -0.146020 -0.131280 0.077040 18.253567 -10.384246 2.849252 -9.338201 0.566223 -10.994343 6.267166 -3.139628 2.718749 0.121140 -2.941424 3.335122 -0.146330 0.008900 -0.166560 -3.895415 -2.794575 -8.352167 17.790674 -0.388764 -0.130765 -7.578977 0.677246 -15.924975 3.612207 -3.363929 -13.185810 -9.270693 3.668456 40.822203 -0.513650 2.636950 10.104340 -2.793633 2.055440 2.341646 -6.535636 8.340105 -1.160486 0.195854 -17.470610 1.503830 -3.658842 3.152046 -0.135700 -0.007620 -0.132790 -0.139770 -4.530588 3.780815 9.309614 12.145928 -5.401018 -1.347019 -5.030467 3.448553 -0.190497 3.271330 -1.141821 -0.042860 -0.138080 -0.068360 0.054060 
0.082990 16.953110 -1.880250 -6.597748 0.988542 11.868836 -14.953080 13.359859 3.691849 19.644427 -1.796462 -10.164464 -5.280835 4.142314 -2.293925 0.422328 3.991743 3.115482 -0.142030 -0.131390 0.085040 18.257263 -10.397336 2.857919 -9.459282 0.533396 -10.774887 6.312491 -3.145622 2.498818 0.108940 -2.970274 3.324899 -0.151910 -0.002140 -0.163310 -3.897866 -2.703001 -8.337768 17.361720 -0.202075 -0.591223 -7.230750 0.756578 -15.617755 3.566335 -3.248039 -13.265398 -9.059778 3.521605 40.945621 -0.536880 2.584460 10.144560 -3.172138 1.740996 2.495045 -6.137468 9.249635 -1.235858 0.551882 -17.513085 1.463231 -3.648808 3.158359 -0.130940 -0.014430 -0.125250 -0.141030 -4.062079 3.940013 9.421554 11.518869 -6.067462 -1.349297 -5.381428 3.566643 -0.166465 3.272892 -1.150014 -0.036290 -0.146740 -0.073710 0.052060 
0.085110 16.952960 -1.875500 -6.596851 0.982858 11.833753 -14.958906 13.343699 3.677178 19.593001 -1.780020 -10.055746 -5.243073 4.137038 -2.309482 0.425467 3.987514 3.120397 -0.149680 -0.140930 0.081840 18.253687 -10.407762 2.866836 -9.480447 0.516281 -10.632607 6.299957 -3.138018 2.327040 0.107351 -2.985483 3.326527 -0.159130 -0.000450 -0.167390 -3.883060 -2.644120 -8.329965 16.956553 -0.066858 -0.937920 -6.764726 0.839833 -15.479630 3.540612 -3.199888 -13.349391 -8.964313 3.436316 40.993130 -0.568580 2.544420 10.296910 -3.401250 1.560225 2.627011 -6.066695 9.961080 -1.346572 1.120117 -17.140863 1.361762 -3.655180 3.142458 -0.129690 -0.014100 -0.127500 -0.142780 -3.749594 4.059179 9.514700 10.805532 -6.570631 -1.324897 -5.879328 3.340999 -0.132713 3.278610 -1.148674 -0.039020 -0.144080 -0.071070 0.051130 
0.085900 16.954300 -1.870340 -6.615856 1.047543 11.756967 -14.962155 13.330589 3.660641 19.591480 -1.759110 -9.968744 -5.185830 4.140734 -2.268840 0.429789 3.984912 3.122732 -0.162340 -0.152070 0.072230 18.252298 -10.422857 2.872738 -9.458072 0.485160 -10.459103 6.307662 -3.148862 2.243425 0.107495 -3.004368 3.325122 -0.166770 0.005350 -0.170550 -3.875983 -2.585106 -8.318735 16.620800 0.013825 -1.261373 -6.379335 0.866774 -15.324022 3.499426 -3.130099 -13.438391 -8.816412 3.406691 41.121114 -0.459760 2.469400 10.533960 -3.656126 1.327967 2.784262 -6.086517 10.462344 -1.472447 2.329598 -16.087273 1.162687 -3.678299 3.109305 -0.132510 -0.011360 -0.130830 -0.145890 -3.405514 4.201080 9.594097 10.231664 -6.974207 -1.287162 -6.230944 3.196846 -0.105310 3.283225 -1.145917 -0.041220 -0.141100 -0.064790 0.053820 
0.086300 16.956400 -1.864940 -6.619892 1.120288 11.663416 -14.964926 13.326329 3.643404 19.575476 -1.734246 -9.904340 -5.113297 4.146465 -2.183424 0.430784 3.974134 3.123577 -0.172670 -0.157470 0.064290 18.249658 -10.439003 2.879130 -9.444363 0.453104 -10.286788 6.287063 -3.154845 2.174964 0.106069 -3.018349 3.321503 -0.171080 0.006040 -0.175720 -3.867925 -2.539312 -8.310198 16.287526 0.067674 -1.551241 -6.042643 0.875560 -15.255126 3.471944 -3.061639 -13.517737 -8.710133 3.437485 41.461931 -0.324040 2.429620 10.685520 -3.960670 1.117138 2.912790 -6.048131 10.646650 -1.553105 4.080179 -14.270250 0.919811 -3.712549 3.062145 -0.134150 -0.012290 -0.131290 -0.151640 -3.033456 4.319841 9.651239 9.711877 -7.226043 -1.224102 -7.149639 2.624305 -0.034631 3.299567 -1.145259 -0.042230 -0.138240 -0.058310 0.055670 
